<svg version="1" xmlns="http://www.w3.org/2000/svg" width="682.667" height="682.667" viewBox="0 0 512.000000 512.000000"><path d="M333 8.1c-15.4 1.9-35 7.8-48.7 14.8-24.6 12.4-49.1 36.5-61.5 60.7l-4.7 9-9.8-3.2c-17.5-5.8-24.7-6.9-46.3-6.9-21.6 0-28.8 1.1-46.1 7-42.1 14.3-76.2 48.6-90.4 90.8-5.4 16.1-6.8 25.7-6.9 45.2 0 19.5 1.6 29.7 7 46.1 14.2 42.7 49.1 77.3 92.1 91.3 16.3 5.3 24.9 6.5 45.8 6.6 11.5 0 19.3.4 19.7 1 .4.5.8 2.4.8 4.1 0 6.2 3.2 21.1 6.6 31.4 15.8 47.4 55.5 83.6 103.9 94.8 49.6 11.5 102.8-4.4 137.1-41 48.4-51.8 52.9-128.5 10.7-185.6l-5.4-7.3 11.1-10.6c23.1-22.1 36.3-45.7 43.2-77 3.1-14.1 3.1-41.4 0-56C478.7 65.1 434.5 21.1 377.3 10 364.9 7.6 344 6.7 333 8.1z"/></svg>